HIERARCHY
ROOT Hips
{
 OFFSET 0.000000 0.000000 0.000000
 CHANNELS 6 Xposition Yposition Zposition Yrotation Xrotation Zrotation
 JOINT Chest
 {
  OFFSET 0.000000 9.876139 0.000104
  CHANNELS 3 Yrotation Xrotation Zrotation
  JOINT Chest2
  {
   OFFSET 0.000000 10.876137 -0.000189
   CHANNELS 3 Yrotation Xrotation Zrotation
   JOINT Chest3
   {
    OFFSET 0.000000 9.827065 0.000000
    CHANNELS 3 Yrotation Xrotation Zrotation
    JOINT Chest4
    {
     OFFSET 0.000000 9.827065 0.000000
     CHANNELS 3 Yrotation Xrotation Zrotation
     JOINT Neck
     {
      OFFSET 0.000000 13.837564 0.000000
      CHANNELS 3 Yrotation Xrotation Zrotation
      JOINT Head
      {
       OFFSET 0.000000 9.147059 -0.000448
       CHANNELS 3 Yrotation Xrotation Zrotation
       End Site
       {
        OFFSET 0.000000 17.513050 -0.000234
       }
      }
     }
     JOINT RightCollar
     {
      OFFSET -3.007721 7.720841 0.000000
      CHANNELS 3 Yrotation Xrotation Zrotation
      JOINT RightShoulder
      {
       OFFSET -14.032560 0.000000 0.000000
       CHANNELS 3 Yrotation Xrotation Zrotation
       JOINT RightElbow
       {
        OFFSET -30.066962 0.000000 0.000000
        CHANNELS 3 Yrotation Xrotation Zrotation
        JOINT RightWrist
        {
         OFFSET -24.575761 0.000000 0.000000
         CHANNELS 3 Yrotation Xrotation Zrotation
         JOINT Prop1
         {
          OFFSET -3.508170 -1.002334 -2.004669
          CHANNELS 3 Yrotation Xrotation Zrotation
          End Site
          {
           OFFSET -75.170729 -33.091210 23.052389
          }
         }
         End Site
         {
          OFFSET -18.342718 0.000000 0.000000
         }
        }
       }
      }
     }
     JOINT LeftCollar
     {
      OFFSET 3.007721 7.720841 0.000000
      CHANNELS 3 Yrotation Xrotation Zrotation
      JOINT LeftShoulder
      {
       OFFSET 14.032560 0.000000 0.000000
       CHANNELS 3 Yrotation Xrotation Zrotation
       JOINT LeftElbow
       {
        OFFSET 30.066962 0.000000 0.000000
        CHANNELS 3 Yrotation Xrotation Zrotation
        JOINT LeftWrist
        {
         OFFSET 24.575761 0.000000 0.000000
         CHANNELS 3 Yrotation Xrotation Zrotation
         End Site
         {
          OFFSET 18.342718 0.000000 0.000000
         }
        }
       }
      }
     }
    }
   }
  }
 }
 JOINT RightHip
 {
  OFFSET -8.019680 -0.000509 -0.000052
  CHANNELS 3 Yrotation Xrotation Zrotation
  JOINT RightKnee
  {
   OFFSET 0.000000 -41.754945 0.000049
   CHANNELS 3 Yrotation Xrotation Zrotation
   JOINT RightAnkle
   {
    OFFSET 0.000000 -40.737371 0.000083
    CHANNELS 3 Yrotation Xrotation Zrotation
    JOINT RightToe
    {
     OFFSET 0.000000 -6.498123 14.692914
     CHANNELS 3 Yrotation Xrotation Zrotation
     End Site
     {
      OFFSET 0.000000 -1.503208 6.410318
     }
    }
   }
  }
 }
 JOINT LeftHip
 {
  OFFSET 8.019680 -0.000509 -0.000052
  CHANNELS 3 Yrotation Xrotation Zrotation
  JOINT LeftKnee
  {
   OFFSET 0.000000 -41.754945 0.000049
   CHANNELS 3 Yrotation Xrotation Zrotation
   JOINT LeftAnkle
   {
    OFFSET 0.000000 -40.737371 0.000083
    CHANNELS 3 Yrotation Xrotation Zrotation
    JOINT LeftToe
    {
     OFFSET 0.000000 -6.498123 14.692914
     CHANNELS 3 Yrotation Xrotation Zrotation
     End Site
     {
      OFFSET 0.000000 -1.503208 6.410318
     }
    }
   }
  }
 }
}
MOTION
Frames: 9
Frame Time: 0.016667
0.000000 88.808225 0.000000 0.000000 -5.826342 0.000000 0.000000 11.116423 0.000000 0.000000 -5.290081 0.000000 0.000000 0.000000 0.000000 0.000000 0.000000 0.000000 0.000000 12.665069 0.000000 0.000000 0.575450 0.000000 0.000000 0.000000 0.000000 0.000000 0.000000 0.000000 2.337306 0.000000 0.000000 -2.337306 0.000000 0.000000 0.000000 0.000000 0.000000 0.000000 0.000000 0.000000 0.000000 0.000000 0.000000 -2.337306 0.000000 0.000000 2.337306 0.000000 0.000000 0.000000 8.578828 0.000000 0.000000 1.905768 0.000000 0.000000 -4.658254 0.000000 0.000000 0.000000 0.000000 0.000000 8.578828 0.000000 0.000000 1.905768 0.000000 0.000000 -4.658254 0.000000 0.000000 0.000000 0.000000
-15.240166 80.313998 38.542878 -138.839616 -9.147918 4.330374 -1.538393 13.285107 2.614990 -0.737410 5.912463 1.200714 -0.737410 5.912463 1.200714 -0.564221 4.432928 0.906892 -16.350739 11.853884 4.345554 -32.833256 -11.100424 14.771475 0.115097 2.028048 1.461954 -26.796910 -48.268690 85.061487 43.056037 -3.214024 -14.171038 0.526939 16.789417 -23.998650 -20.378002 1.575112 -85.963173 -0.976452 -3.830296 -16.963614 9.702231 -2.791760 -74.628751 -20.759855 13.327748 1.762962 -2.879522 -2.442672 -0.567749 -10.631602 -32.032122 -25.677285 -10.781320 33.306749 -5.486485 6.719910 11.784144 -0.197087 -0.004360 -0.000558 -0.011030 27.275526 -2.261713 24.021950 -28.388188 31.664282 -14.235772 -7.917002 -27.937976 -0.349480 0.022652 -0.006416 0.032744
-15.229234 80.330353 38.535641 -138.949774 -9.125798 4.298318 -1.513147 13.278457 2.637875 -0.725964 5.910325 1.208836 -0.725964 5.910325 1.208836 -0.555719 4.431338 0.912866 -16.347174 11.865361 4.335470 -32.819612 -11.084020 14.747916 0.118353 2.074817 1.417849 -26.751815 -48.230723 85.144915 43.067777 -3.180295 -14.234070 0.512631 16.741484 -23.993727 -20.373626 1.572127 -86.009591 -0.970435 -3.820484 -16.998532 9.594417 -2.819466 -74.636780 -20.853888 13.273677 1.779646 -2.865226 -2.439204 -0.624744 -10.573819 -32.011057 -25.608112 -10.770007 33.299451 -5.461071 6.677720 11.771899 -0.205724 -0.004513 0.002160 -0.021073 27.228396 -2.181867 24.042352 -28.227741 31.606251 -14.159367 -7.883489 -27.924788 -0.393856 0.025844 -0.005009 0.029310
-15.206043 80.343759 38.533852 -139.077901 -9.053798 4.272335 -1.480562 13.251697 2.658529 -0.713867 5.896272 1.217421 -0.713867 5.896272 1.217421 -0.546711 4.420812 0.919168 -16.343242 11.874002 4.318344 -32.803481 -11.075067 14.712133 0.145559 2.089253 1.390333 -26.639641 -48.171356 85.150041 43.065683 -3.192543 -14.304092 0.489869 16.725758 -23.970697 -20.352579 1.556882 -86.027148 -0.952078 -3.848350 -17.024439 9.518892 -2.827996 -74.664995 -20.861069 13.247740 1.813376 -2.844377 -2.434759 -0.665547 -10.488005 -32.050974 -25.536078 -10.720753 33.310808 -5.409217 6.606004 11.756979 -0.219790 -0.004892 0.006068 -0.030113 27.217031 -2.152997 24.035243 -28.085206 31.548542 -14.086406 -7.757279 -27.902819 -0.476943 0.027393 -0.000845 0.023964
-15.186376 80.357490 38.534249 -139.209644 -9.013529 4.254319 -1.465656 13.247772 2.683098 -0.718142 5.883097 1.228118 -0.718142 5.883097 1.228118 -0.549994 4.410910 0.927213 -16.323391 11.881167 4.287018 -32.752745 -11.077740 14.645139 0.206646 2.082395 1.334500 -26.510156 -48.122861 85.145344 43.042192 -3.224581 -14.339546 0.465499 16.710941 -23.928689 -20.330913 1.584087 -85.999062 -0.913896 -3.884675 -17.083869 9.507143 -2.838718 -74.679997 -20.802945 13.251840 1.833406 -2.828614 -2.427828 -0.688705 -10.400062 -32.058504 -25.480884 -10.660207 33.316425 -5.346581 6.590768 11.741792 -0.229049 -0.003629 0.003823 -0.034415 27.262730 -2.110634 24.030225 -28.002764 31.486359 -14.011171 -7.627420 -27.871542 -0.549669 0.011678 -0.006974 0.012190
-15.172686 80.373389 38.531800 -139.305103 -9.010809 4.244901 -1.475037 13.241472 2.699051 -0.726752 5.877939 1.235163 -0.726752 5.877939 1.235163 -0.556505 4.407016 0.932571 -16.306005 11.893304 4.255798 -32.705258 -11.070711 14.577583 0.247757 2.067010 1.296640 -26.446332 -48.074482 85.183968 43.041232 -3.293368 -14.319704 0.464212 16.771235 -23.907094 -20.353176 1.662062 -85.956408 -0.886535 -3.873457 -17.123121 9.485020 -2.881142 -74.708624 -20.690026 13.270611 1.861901 -2.815966 -2.426541 -0.716892 -10.346575 -32.049236 -25.451264 -10.660430 33.323193 -5.328904 6.609327 11.731389 -0.236960 -0.002764 0.002407 -0.036581 27.323126 -2.063541 24.033669 -27.952026 31.450946 -13.939945 -7.559311 -27.857514 -0.606322 0.009554 -0.009087 0.008623
-15.158276 80.382612 38.530145 -139.354760 -8.928652 4.235573 -1.483238 13.169477 2.717214 -0.732513 5.846595 1.240943 -0.732513 5.846595 1.240943 -0.560818 4.383490 0.936929 -16.301943 11.919097 4.220997 -32.677544 -11.036524 14.503600 0.259793 2.068875 1.289141 -26.501022 -48.012152 85.280652 43.051542 -3.306720 -14.229664 0.456191 16.866607 -23.963408 -20.420192 1.743240 -85.968455 -0.902748 -3.867245 -17.134638 9.483003 -2.851992 -74.737968 -20.558040 13.290983 1.887037 -2.789596 -2.415789 -0.747079 -10.362349 -32.132378 -25.403937 -10.719093 33.310870 -5.359658 6.644008 11.743134 -0.244885 -0.001537 -0.002262 -0.039026 27.348662 -2.124377 24.007216 -27.914598 31.447011 -13.903160 -7.550528 -27.846168 -0.633048 0.011759 -0.013495 0.006082
-15.135948 80.376722 38.531776 -139.399695 -8.695571 4.205201 -1.466125 13.042155 2.741728 -0.726614 5.786514 1.250061 -0.726614 5.786514 1.250061 -0.556371 4.338430 0.943649 -16.300505 11.936541 4.206955 -32.664780 -11.010007 14.471577 0.239323 2.049925 1.301450 -26.508229 -47.958171 85.356658 43.024848 -3.166578 -14.244951 0.432541 16.834891 -23.981232 -20.497651 1.785276 -86.044454 -0.969071 -3.860806 -17.113435 9.489715 -2.848428 -74.785086 -20.382430 13.330995 1.915596 -2.765474 -2.409965 -0.786147 -10.411680 -32.368237 -25.290707 -10.772597 33.297879 -5.398692 6.758167 11.731015 -0.240666 0.000954 0.010581 -0.039015 27.405006 -2.341439 23.933109 -27.958087 31.432112 -13.902417 -7.492873 -27.851022 -0.658559 0.013584 -0.000864 0.003811
-15.115902 80.365142 38.529342 -139.507159 -8.481518 4.162156 -1.419883 12.925456 2.771411 -0.711779 5.726508 1.265783 -0.711779 5.726508 1.265783 -0.545287 4.293437 0.955236 -16.293429 11.954443 4.193072 -32.641417 -10.984169 14.437786 0.211424 2.061210 1.288461 -26.375207 -47.917999 85.345075 42.972150 -3.005940 -14.351506 0.376255 16.706278 -23.934878 -20.531046 1.806694 -86.125596 -1.030097 -3.791926 -17.111143 9.464524 -2.889697 -74.808351 -20.173430 13.359521 1.924400 -2.753306 -2.403558 -0.830617 -10.385403 -32.583678 -25.159205 -10.768114 33.312472 -5.400060 6.764613 11.697059 -0.255142 0.006529 0.041943 -0.035658 27.550694 -2.542726 23.897132 -27.979125 31.413042 -13.882860 -7.485406 -27.900770 -0.674419 0.008733 0.051558 0.000908
